<svg width="890.4999999999999" height="154.65681365133074" viewBox="0 0 365.0869565217391 63.40615991163852" class="css-1j8o68f"><defs id="SvgjsDefs15300"><linearGradient id="SvgjsLinearGradient15305"><stop id="SvgjsStop15306" stop-color="#00ff8f" offset="0"></stop><stop id="SvgjsStop15307" stop-color="#00a1ff" offset="1"></stop></linearGradient><linearGradient id="SvgjsLinearGradient15308"><stop id="SvgjsStop15309" stop-color="#00ff8f" offset="0"></stop><stop id="SvgjsStop15310" stop-color="#00a1ff" offset="1"></stop></linearGradient></defs><g id="SvgjsG15301" featurekey="symbolFeature-0" transform="matrix(1.5851419041179884,0,0,1.5851419041179884,289.0001436429532,-6.340083869552973)" fill="url(#SvgjsLinearGradient15305)"><g xmlns="http://www.w3.org/2000/svg" transform="translate(0,-1004.3622)"><path style="color:;font-style:normal;font-variant:normal;font-weight:normal;font-stretch:normal;font-size:medium;line-height:normal;font-family:sans-serif;text-indent:0;text-align:start;text-decoration:none;text-decoration-line:none;text-decoration-style:solid;text-decoration-color:;letter-spacing:normal;word-spacing:normal;text-transform:none;direction:ltr;block-progression:tb;writing-mode:lr-tb;baseline-shift:baseline;text-anchor:start;white-space:normal;clip-rule:nonzero;display:inline;overflow:visible;visibility:visible;opacity:1;isolation:auto;mix-blend-mode:normal;color-interpolation:sRGB;color-interpolation-filters:linearRGB;solid-color:;solid-opacity:1;fill:url(#SvgjsLinearGradient15305);fill-opacity:1;fill-rule:nonzero;stroke:none;stroke-width:6.20042133;stroke-linecap:round;stroke-linejoin:round;stroke-miterlimit:4;stroke-dasharray:none;stroke-dashoffset:0;stroke-opacity:1;color-rendering:auto;image-rendering:auto;shape-rendering:auto;text-rendering:auto;enable-background:accumulate" d="m 15.509069,1027.3606 c -0.357794,-10e-5 -0.688489,0.19 -0.867535,0.4989 l -5.5066946,9.4927 c -0.1791737,0.3087 -0.179654,0.6892 -0.00126,0.9983 l 5.4915446,9.5016 c 0.178625,0.3091 0.509078,0.4998 0.866889,0.5001 l 10.998854,0.01 c 0.357773,2e-4 0.688463,-0.19 0.867535,-0.4988 l 5.506695,-9.4928 c 0.179186,-0.3087 0.179681,-0.6892 0.0013,-0.9983 l -5.491545,-9.5016 c -0.178625,-0.3091 -0.509078,-0.4998 -0.866889,-0.5001 -3.666298,0 -7.332596,-0.01 -10.998894,-0.01 z m 0.576645,1.9973 9.842399,0.01 4.914254,8.5026 -4.928145,8.4944 -9.842399,-0.01 -4.914254,-8.5025 4.928145,-8.4951 z"></path><path style="color:;font-style:normal;font-variant:normal;font-weight:normal;font-stretch:normal;font-size:medium;line-height:normal;font-family:sans-serif;text-indent:0;text-align:start;text-decoration:none;text-decoration-line:none;text-decoration-style:solid;text-decoration-color:;letter-spacing:normal;word-spacing:normal;text-transform:none;direction:ltr;block-progression:tb;writing-mode:lr-tb;baseline-shift:baseline;text-anchor:start;white-space:normal;clip-rule:nonzero;display:inline;overflow:visible;visibility:visible;opacity:1;isolation:auto;mix-blend-mode:normal;color-interpolation:sRGB;color-interpolation-filters:linearRGB;solid-color:;solid-opacity:1;fill:url(#SvgjsLinearGradient15305);fill-opacity:1;fill-rule:evenodd;stroke:none;stroke-width:2;stroke-linecap:round;stroke-linejoin:round;stroke-miterlimit:4;stroke-dasharray:none;stroke-dashoffset:0;stroke-opacity:1;color-rendering:auto;image-rendering:auto;shape-rendering:auto;text-rendering:auto;enable-background:accumulate" d="m 22,1021.36 a 1.0001,1.0001 0 0 0 -1,1 l 0,5.9864 a 1.0001,1.0001 0 1 0 2,0 l 0,-4.9864 15,0 0,3.9883 a 1.0001,1.0001 0 1 0 2,0 l 0,-4.9883 a 1.0001,1.0001 0 0 0 -1,-1 l -17,0 z"></path><path style="color:;font-style:normal;font-variant:normal;font-weight:normal;font-stretch:normal;font-size:medium;line-height:normal;font-family:sans-serif;text-indent:0;text-align:start;text-decoration:none;text-decoration-line:none;text-decoration-style:solid;text-decoration-color:;letter-spacing:normal;word-spacing:normal;text-transform:none;direction:ltr;block-progression:tb;writing-mode:lr-tb;baseline-shift:baseline;text-anchor:start;white-space:normal;clip-rule:nonzero;display:inline;overflow:visible;visibility:visible;opacity:1;isolation:auto;mix-blend-mode:normal;color-interpolation:sRGB;color-interpolation-filters:linearRGB;solid-color:;solid-opacity:1;fill:url(#SvgjsLinearGradient15305);fill-opacity:1;fill-rule:evenodd;stroke:none;stroke-width:2;stroke-linecap:butt;stroke-linejoin:round;stroke-miterlimit:4;stroke-dasharray:none;stroke-dashoffset:0;stroke-opacity:1;color-rendering:auto;image-rendering:auto;shape-rendering:auto;text-rendering:auto;enable-background:accumulate" d="m 20.121094,1008.362 a 1.0001,1.0001 0 0 0 -0.875,0.4863 l -19.105469,32 A 1.0001,1.0001 0 0 0 1,1042.36 l 11.060547,0 0,-2 -9.2968751,0 17.3574221,-29.0742 7.177734,11.6016 1.701172,-1.0528 -8.044922,-13 a 1.0001,1.0001 0 0 0 -0.833984,-0.4726 z"></path><path style="color:;font-style:normal;font-variant:normal;font-weight:normal;font-stretch:normal;font-size:medium;line-height:normal;font-family:sans-serif;text-indent:0;text-align:start;text-decoration:none;text-decoration-line:none;text-decoration-style:solid;text-decoration-color:;letter-spacing:normal;word-spacing:normal;text-transform:none;direction:ltr;block-progression:tb;writing-mode:lr-tb;baseline-shift:baseline;text-anchor:start;white-space:normal;clip-rule:nonzero;display:inline;overflow:visible;visibility:visible;opacity:1;isolation:auto;mix-blend-mode:normal;color-interpolation:sRGB;color-interpolation-filters:linearRGB;solid-color:;solid-opacity:1;fill:url(#SvgjsLinearGradient15305);fill-opacity:1;fill-rule:nonzero;stroke:none;stroke-width:1.99999988;stroke-linecap:round;stroke-linejoin:round;stroke-miterlimit:4;stroke-dasharray:none;stroke-dashoffset:0;stroke-opacity:1;color-rendering:auto;image-rendering:auto;shape-rendering:auto;text-rendering:auto;enable-background:accumulate" d="m 37.070312,1026.362 c -3.417299,-0.018 -6.733456,1.5606 -8.861328,4.3984 a 1.0000999,1.0000999 0 1 0 1.59961,1.1992 c 2.325488,-3.1013 6.36286,-4.3621 10.039062,-3.1367 3.67621,1.2255 6.150912,4.658 6.152344,8.5352 0.0014,3.8772 -2.471217,7.3109 -6.146484,8.539 -3.675293,1.2282 -7.713223,-0.029 -10.041016,-3.1289 a 1.0000999,1.0000999 0 1 0 -1.599609,1.1993 c 2.839975,3.7815 7.790758,5.3248 12.27539,3.8261 4.484603,-1.4986 7.51345,-5.7077 7.511719,-10.4375 -0.0017,-4.7298 -3.033779,-8.9363 -7.519531,-10.4316 -1.121436,-0.3738 -2.271057,-0.5564 -3.410157,-0.5625 z"></path></g></g><g id="SvgjsG15302" featurekey="nameFeature-0" transform="matrix(0.9958348080749417,0,0,0.9958348080749417,0.05834995176002983,6.039180391644548)" fill="url(#SvgjsLinearGradient15308)"><path d="M-0.058594 12.012 l5.293 0 l1.5625 14.063 l1.4648 0 c0.026035 -0.11719 0.45572 -4.8047 1.2891 -14.063 l6.6992 0 c0.85938 9.5572 1.3086 14.427 1.3477 14.609 l2.207 0 c0.97656 -8.3854 1.5234 -13.255 1.6406 -14.609 l5.293 0 l-2.207 14.844 l-0.41016 0 l0 2.7539 l-4.0039 0 l0 0.70313 l3.1641 0 l0 4.1797 l-3.0273 0 l0 3.6719 l-0.82031 0 l0 1.6016 l-3.3984 0 l0 -9.043 l-2.207 0 l0 -3.2617 c0 -0.28646 -0.29297 -2.9232 -0.87891 -7.9102 l-0.097656 0 l0 0.039063 l-0.72266 6.4844 l0.35156 0 l0 10.02 l-3.2617 0 l0 3.9063 l-4.1797 0 l0 -3.9063 l-1.6016 0 l0 -9.2383 l-1.2891 0 z M2.3242 27.266 l0.27344 0 l0.19531 0.60547 l0.039063 0 c0.091152 -0.40365 0.16928 -0.60547 0.23438 -0.60547 l0.17578 0 l0 0.058594 c-0.18229 0.63803 -0.29947 0.95703 -0.35156 0.95703 l-0.23438 0 c0 -0.091152 -0.11068 -0.42969 -0.33203 -1.0156 z M2.2852 28.652 l0.27344 0.000019073 l0 0.68359 c0 0.026035 0.065098 0.071602 0.19531 0.1367 c0.11719 -0.039063 0.17578 -0.084629 0.17578 -0.13672 l0 -0.68359 l0.27344 0 l0 0.50781 c0 0.26041 -0.091152 0.42969 -0.27344 0.50781 l-0.27344 0 c-0.2474 0 -0.37109 -0.16928 -0.37109 -0.50781 l0 -0.50781 z M2.2852 30.0195 l0.68359 0 c0.05209 0 0.11719 0.065098 0.19531 0.19531 l0 0.17578 l-0.097656 0.13672 c0.05209 0.10416 0.097656 0.27344 0.13672 0.50781 l-0.27344 0 c0 -0.078125 -0.013027 -0.20182 -0.039063 -0.37109 l-0.33203 0 l0 0.37109 l-0.17578 0 c-0.065098 0 -0.097656 -0.032559 -0.097656 -0.097656 l0 -0.91797 z M2.5586 30.2148 l0 0.23436 l0.27344 0 c0.065098 0 0.097656 -0.032559 0.097656 -0.097656 c-0.026035 -0.065098 -0.039063 -0.11066 -0.039063 -0.1367 l-0.33203 0 z M2.4609 31.4062 l0.74219 -0.000019073 l0 0.23438 l-0.44922 0 l0 0.13672 l0.3125 0 c0.065098 0.013027 0.097656 0.045586 0.097656 0.097676 l0 0.13672 l-0.41016 0 l0 0.41016 l-0.19531 0 c-0.065098 0 -0.097656 -0.032559 -0.097656 -0.097656 l0 -0.91797 z M2.7539 32.7344 c0.27344 0.065098 0.41012 0.18881 0.41012 0.37109 l-0.097656 0.039063 l-0.097656 0 l-0.17578 -0.17578 l-0.13672 0 c-0.13021 0.05209 -0.19531 0.15625 -0.19531 0.3125 c0 0.22135 0.097656 0.33203 0.29297 0.33203 c0.11719 -0.05209 0.17578 -0.097656 0.17578 -0.13672 l0 -0.039063 c-0.15625 0 -0.23438 -0.032559 -0.23438 -0.097656 l0 -0.058594 c0.013027 -0.05209 0.045586 -0.078125 0.097676 -0.078125 l0.37109 0 l0 0.58594 l-0.058594 0 c-0.026035 0 -0.071602 -0.013027 -0.1367 -0.039063 l-0.27344 0.039063 l-0.039063 0 c-0.27344 -0.039063 -0.41016 -0.17578 -0.41016 -0.41016 l0 -0.17578 c0 -0.26041 0.16928 -0.41666 0.50781 -0.46875 z M2.2852 34.1602 l0.27344 0 l0 0.37109 l0.37109 0 l0 -0.37109 l0.27344 0 l0 0.91797 c0 0.065098 -0.032559 0.097656 -0.097656 0.097656 l-0.17578 0 l0 -0.41016 l-0.37109 0 l0 0.41016 l-0.17578 0 c-0.065098 0 -0.097656 -0.032559 -0.097656 -0.097656 l0 -0.91797 z M20.391 34.707 l0.27344 0 c0.065098 0.27344 0.097656 0.46225 0.097656 0.56641 l0.039063 0 c0.091152 -0.29947 0.13672 -0.48828 0.13672 -0.56641 l0.19531 0 c0.078125 0 0.13672 0.20182 0.17578 0.60547 l0.058594 0 c0.05209 -0.40365 0.11068 -0.60547 0.17578 -0.60547 l0.17578 0 c-0.14322 0.67709 -0.24738 1.0156 -0.31248 1.0156 l-0.19531 0 l-0.13672 -0.54688 l-0.039063 0 c-0.065098 0.33854 -0.097656 0.52082 -0.097656 0.54686 l-0.27344 0 c-0.05209 -0.26041 -0.14324 -0.59895 -0.27346 -1.0156 z M20.43 36.0937 l0.23439 0 c0.065098 0 0.1302 0.091152 0.19529 0.27344 c0.05209 0 0.11068 -0.091152 0.17578 -0.27344 l0.27344 0 l0 0.039063 l-0.27344 0.42969 c0 0.013027 0.11068 0.17578 0.33203 0.48828 l0 0.058594 l-0.23438 0 c-0.078125 0 -0.15625 -0.11068 -0.23438 -0.33203 c-0.15625 0.22135 -0.2474 0.33203 -0.27344 0.33203 l-0.23438 0 c0 -0.026035 0.11068 -0.19531 0.33203 -0.50781 l0 -0.039063 l-0.29297 -0.42969 l0 -0.039063 z M37.441218750000004 12.012 c4.0104 0 6.6471 1.4063 7.9102 4.2188 c0.71615 1.3672 1.0742 4.0039 1.0742 7.9102 l0 0.13672 l-2.0703 0 l0 0.9375 l2.0703 0 l0 10.098 l-1.3672 0 l0 3.6523 l-2.7148 0 l0 1.0352 l-9.4922 0 l0 -1.0352 l-1.1719 0 l0 -3.6523 l-2.4414 0 l0 -2.8516 l1.4648 0 l0 -1.4844 l-1.4648 0 l0 1.4844 l-3.457 0 l0 -1.4844 l2.6172 0 c-0.026035 -2.2916 -0.039063 -4.043 -0.039063 -5.2539 l0 -2.3828 c0 -4.4271 0.74869 -7.3893 2.2461 -8.8867 c1.3802 -1.6276 3.6588 -2.4414 6.8359 -2.4414 z M34.02341875 21.66 l0.039082 0.000019073 l-0.039063 0.078125 l0 2.5391 l-2.1094 0 l0 0.9375 l2.1094 0 c-0.039063 4.0234 -0.058594 7.0639 -0.058594 9.1211 l0 0.97656 l4.6875 0 l0 -1.543 l2.1484 0 l0 -0.039063 c0 -1.901 -0.013027 -4.5508 -0.039063 -7.9492 c0 -0.14322 0.013027 -0.50781 0.039063 -1.0938 c0 -3.685 -0.21484 -5.9439 -0.64453 -6.7773 c-0.44271 -0.80729 -1.2565 -1.2109 -2.4414 -1.2109 l-0.70313 0 c-1.4063 0 -2.2787 0.6185 -2.6172 1.8555 c-0.15625 0.625 -0.27994 1.6602 -0.37109 3.1055 z M46.426218750000004 24.277 l3.3594 0 l0 0.9375 l-3.3594 0 l0 -0.9375 z M46.66021875 25.391 l0.097656 0 c0.078125 0 0.13672 0.18881 0.17578 0.56641 c0.05209 0 0.13021 -0.18881 0.23438 -0.56641 l0.13672 0 c0.078125 0 0.14322 0.20182 0.19531 0.60547 l0.039063 0 l0.13672 -0.60547 l0.23438 0 l0 0.058594 c-0.14322 0.67709 -0.24738 1.0156 -0.31248 1.0156 l-0.19531 0 c0 -0.05209 -0.045566 -0.25391 -0.13672 -0.60547 l-0.039063 0 c-0.05209 0.40365 -0.11719 0.60547 -0.19531 0.60547 l-0.19531 0 c-0.091152 -0.40365 -0.1823 -0.74219 -0.27346 -1.0156 z M46.75821875 26.797 l0.17576 0 c0.078125 0 0.17578 0.22135 0.29297 0.66406 l0.039063 0 c0 -0.065098 0.058594 -0.28645 0.17578 -0.66404 l0.33203 0 l0 1.0742 l-0.23438 0 l0 -0.54688 l-0.039063 0 c-0.091152 0.36459 -0.16928 0.54688 -0.23438 0.54688 l-0.13672 0 c-0.091152 -0.28646 -0.13672 -0.45574 -0.13672 -0.50783 l-0.058594 0 c0 0.33854 -0.032559 0.50781 -0.097656 0.50781 l-0.17578 0 l0 -0.97656 c0.013027 -0.065098 0.045586 -0.097656 0.097676 -0.097656 z M46.60121875 28.203 l0.19529 0.000019073 c0.15625 0.091152 0.23438 0.20184 0.23438 0.33205 c0.013027 0 0.10418 -0.11068 0.27346 -0.33203 l0.19531 0 l0 0.097656 l-0.27344 0.41016 c0 0.026035 0.10416 0.20182 0.3125 0.52734 l0 0.039063 l-0.23438 0 l-0.27344 -0.33203 c-0.10416 0.22135 -0.18229 0.33203 -0.23438 0.33203 l-0.23438 0 c0.22135 -0.32553 0.33203 -0.51434 0.33203 -0.56643 c-0.19531 -0.28646 -0.29297 -0.45574 -0.29297 -0.50783 z M46.75821875 29.609 l0.27342 0 c0.3125 0 0.46875 0.11068 0.46875 0.33203 l0 0.039063 l-0.097656 0.13672 c0.05209 0 0.097656 0.05209 0.13672 0.15625 l0 0.17578 c-0.065098 0.15625 -0.22135 0.23438 -0.46875 0.23438 l-0.41016 0 l0 -0.97656 c0.013027 -0.065098 0.045586 -0.097656 0.097676 -0.097656 z M46.93321875 29.844 l0 0.19531 l0.29297 0 l0 -0.19531 l-0.29297 0 z M39.68721875 29.844 l0.27342 0 l0 0.37109 l0.33203 0 l0 -0.27344 c0.013027 -0.065098 0.045586 -0.097656 0.097676 -0.097656 l0.17578 0 l0 1.0352 l-0.27344 0 l0 -0.42969 l-0.33203 0 l0 0.42969 l-0.27344 0 l0 -1.0352 z M46.93321875 30.2148 l0 0.23438 l0.33203 0 l0 -0.13672 c0 -0.065098 -0.032559 -0.097656 -0.097656 -0.097656 l-0.23438 0 z M46.75821875 31.0156 l0.60545 -0.000019073 c0.05209 0.013027 0.078125 0.045586 0.078125 0.097676 l0 0.13672 l-0.50781 0 l0 0.17578 l0.46875 0 l0 0.23438 l-0.46875 0 l0 0.19531 l0.50781 0 l0 0.23438 l-0.78125 0 l0 -0.97656 c0.013027 -0.065098 0.045586 -0.097656 0.097676 -0.097656 z M39.68721875 31.25 l0.78125 0 l0 0.097656 c0 0.11719 -0.15625 0.35156 -0.46875 0.70313 c0.35156 0 0.52734 0.026035 0.52734 0.078125 l0 0.15625 l-0.89844 0 l0 -0.19531 c0.23438 -0.27344 0.39063 -0.47525 0.46875 -0.60547 l-0.41016 0 l0 -0.23438 z M34.76561875 32.5977 c0.27344 0 0.42969 0.20834 0.46875 0.625 c0 0.29947 -0.18881 0.46875 -0.56641 0.50781 c-0.3125 -0.078125 -0.46875 -0.2474 -0.46875 -0.50781 c0 -0.41666 0.18881 -0.625 0.56641 -0.625 z M39.96121875 32.6562 l0.27346 0 c0 0.078125 0.13021 0.41666 0.39063 1.0156 l-0.23438 0 c-0.065098 0 -0.097656 -0.058594 -0.097656 -0.17578 l-0.33203 0 c-0.065098 0 -0.097656 0.058594 -0.097656 0.17578 l-0.27344 0 l0 -0.039063 c0.065098 -0.11719 0.18879 -0.44271 0.37107 -0.97656 z M34.49221875 33.0273 l0 0.19531 c0 0.18229 0.091152 0.27344 0.27344 0.27344 c0.13021 -0.026035 0.19531 -0.11719 0.19531 -0.27344 l0 -0.19531 c0 -0.05209 -0.065098 -0.11719 -0.19531 -0.19531 l-0.097656 0 c-0.039063 0 -0.097656 0.065098 -0.17578 0.19531 z M40.05821875 33.0273 l-0.058594 0.23438 l0.19531 0 c-0.039063 -0.15625 -0.084629 -0.23438 -0.13672 -0.23438 z M34.66801875 34.0039 c0.20834 0 0.36459 0.097656 0.46875 0.29297 l0 0.13672 l-0.23438 0 c0 -0.13021 -0.091152 -0.19531 -0.27344 -0.19531 l-0.13672 0.19531 l0 0.17578 c0 0.19531 0.091152 0.29297 0.27344 0.29297 c0.026035 0 0.10416 -0.078125 0.23438 -0.23438 l0.19531 0 c0 0.26041 -0.17578 0.41666 -0.52734 0.46875 c-0.3125 -0.091152 -0.46875 -0.26693 -0.46875 -0.52734 c0.039063 -0.40365 0.19531 -0.60547 0.46875 -0.60547 z M49.1796925 12.07 l9.5703 -0.000019073 c3.2031 0 5.2734 1.1263 6.2109 3.3789 c0.40365 1.1588 0.60547 2.4869 0.60547 3.9844 l0 1.1719 c0 2.7084 -0.59244 4.7721 -1.7773 6.1914 l-2.0313 0 l0 1.0352 l3.1055 0 l0 6.6797 l-1.8359 0 l0 1.0352 l2.7734 0 l0 3.9453 l-5.8203 0 l0 -6.3086 l-2.2461 0 l0 -4.082 l-3.9063 0 l0 6.9141 l0.83984 0 l0 3.9844 l-5.3906 0 c-0.065098 0 -0.097656 -0.032559 -0.097656 -0.097656 l0 -11.211 l2.4023 0 l0 -0.80078 l-2.4023 0 l0 -15.82 z M54.6679625 16.621 l0 7.8906 l1.3281 0 c1.9922 0 3.1445 -0.18881 3.457 -0.56641 c0.32553 -0.20834 0.57943 -0.63152 0.76172 -1.2696 l2.0703 0 l0 -0.99609 l-1.875 0 l0 0.097656 c-0.10416 0.59896 -0.18229 0.89844 -0.23438 0.89844 l-2.6758 0 l0 -0.99609 l2.8125 0 c0.065098 0 0.097656 -0.026035 0.097656 -0.078125 c0.026035 -0.80729 0.039063 -1.263 0.039063 -1.3672 c0 -1.7448 -0.29947 -2.8125 -0.89844 -3.2031 c-0.46875 -0.27344 -1.3281 -0.41016 -2.5781 -0.41016 l-2.3047 0 z M54.0624625 29.336 l0.23438 0 c0.13021 0.065098 0.19531 0.16275 0.19531 0.29297 c0.05209 0 0.11068 -0.097656 0.17578 -0.29297 l0.29297 0 l0 0.058594 l-0.29297 0.41016 c0 0.026035 0.11068 0.20182 0.33203 0.52734 l0 0.039063 l-0.23438 0 c-0.026035 0 -0.11719 -0.11068 -0.27344 -0.33203 c-0.091152 0.20834 -0.16928 0.31902 -0.23438 0.33205 l-0.23438 0 c0.20834 -0.32553 0.3125 -0.51434 0.3125 -0.56643 z M54.1015625 30.7422 l0.85938 0 l0 0.15625 l-0.52734 0.64453 l0.52734 0 l0 0.23438 l-0.89844 0 l0 -0.17578 l0.50781 -0.66406 l-0.46875 0 l0 -0.19531 z M66.73827875 12.012 l5.5469 0 l0 11.484 l-1.0742 0 l0 11.855 l8.2617 0 l0 2.4805 l-1.6406 0 l0 0.56641 l1.6406 0 l0 1.6016 l-5.3516 0 l0 -0.42969 l-7.3438 0 c-0.026035 -0.3125 -0.039063 -0.54688 -0.039063 -0.70313 l0 -6.25 l1.4063 0 l0 -0.83984 l-1.4063 0 l0 -19.766 z M71.58201875 33.8867 l0.33203 0 c0.15625 0.22135 0.2474 0.33203 0.27344 0.33203 c0.10416 -0.22135 0.18229 -0.33203 0.23438 -0.33203 l0.29297 0 c-0.039063 0.10416 -0.16275 0.29297 -0.37109 0.56641 c0.065098 0.13021 0.20182 0.35156 0.41016 0.66406 l-0.33203 0 c-0.15625 -0.14322 -0.23438 -0.27344 -0.23438 -0.39063 c-0.026035 0 -0.13672 0.13021 -0.33203 0.39063 l-0.27344 0 l0 -0.058594 l0.37109 -0.56641 l0 -0.039063 z M79.47271875 37.832 l2.0313 0 l0 0.56641 l-2.0313 0 l0 -0.56641 z M82.8320125 12.030999999999999 l8.4961 0 c3.5547 0 6.0025 1.2044 7.3438 3.6133 c1.1198 1.888 1.6797 5.0064 1.6797 9.3555 l0.83984 0 l0 6.6797 l-8.2617 0 l0 -0.74219 l2.5781 0 l0 -5.9375 l-0.74219 0 l0 -2.4414 c0 -2.7475 -0.61197 -4.4986 -1.8359 -5.2539 c-0.72916 -0.41666 -1.888 -0.625 -3.4766 -0.625 l-1.1328 0 l0 8.1836 l0.76172 0 l0 6.8164 l-5.6055 0 l0 -6.2891 l-0.64453 0 l0 -13.359 z M94.9023125 29.609 l0.27344 0 l0 0.70313 l0.15625 0 l0 0.23438 l-0.15625 0 l0 0.29297 l-0.27344 0 l0 -0.29297 l-0.50781 0 l0 -0.17578 c0.33854 -0.46875 0.50781 -0.72266 0.50781 -0.76172 z M94.6683125 30.3125 l0.23438 0 l0 -0.27344 c-0.039063 0 -0.11719 0.091152 -0.23438 0.27344 z M89.3555125 30.273400000000002 l0.27344 -0.000038146 c0.039063 0 0.13672 0.11068 0.29297 0.33203 c0.13021 -0.15625 0.19531 -0.26693 0.19531 -0.33203 l0.3125 0 l0 0.039063 c-0.20834 0.29947 -0.3125 0.48828 -0.3125 0.56641 l0.37109 0.60547 l-0.37109 0 c0 -0.10416 -0.078125 -0.22785 -0.23438 -0.37107 c-0.11719 0.23438 -0.21484 0.35807 -0.29297 0.37109 l-0.27344 0 c0.20834 -0.3776 0.34506 -0.57941 0.41016 -0.60545 z M80.3320125 31.6797 l2.5391 0 l0 0.89844 l6.2109 0 l0 1.8359 l3.8477 0 l0 -1.8359 l8.2617 0 l0 1.8359 l-5.6836 0 l0 4.9805 l-6.4258 0 l0 0.60547 l-6.1719 0 c-0.05209 0 -0.078125 -0.032559 -0.078125 -0.097656 l0 -7.3242 l-2.5 0 l0 -0.89844 z M89.0820125 31.6797 l3.8477 0 l0 0.89844 l-3.8477 0 l0 -0.89844 z M101.1913125 31.6797 l5.5078 0 l0 0.89844 l-5.5078 0 l0 -0.89844 z M96.1723125 34.5898 l0.33201 0 c0.22135 0.61197 0.35807 1.0352 0.41016 1.2695 l-0.23438 0 c-0.05209 0 -0.097656 -0.091152 -0.13672 -0.27344 l-0.37109 0 c-0.065098 0 -0.11066 0.091152 -0.1367 0.27344 l-0.29297 0 l0 -0.039063 c0 -0.026035 0.14322 -0.43619 0.42969 -1.2305 z M97.2463125 34.5898 l0.29297 0.000019073 l0.23438 0.80078 l0.039063 0 c0 -0.05209 0.078125 -0.31902 0.23438 -0.8008 l0.29297 0 c0 0.10416 -0.13021 0.52734 -0.39063 1.2695 l-0.27344 0 c-0.078125 0 -0.22135 -0.42318 -0.42969 -1.2695 z M98.8083125 34.5898 l0.33203 0 l0 1.2695 l-0.33203 0 l0 -1.2695 z M99.6873125 34.5898 l0.52734 -0.000019073 c0.40365 0 0.60547 0.23438 0.60547 0.70313 c0 0.32553 -0.20182 0.51434 -0.60547 0.56643 l-0.52734 0 l0 -1.2695 z M100.0193125 34.8828 l0 0.70313 l0.29297 0 c0.039063 0 0.097656 -0.065098 0.17578 -0.19531 l0 -0.33203 c0 -0.039063 -0.058594 -0.097656 -0.17578 -0.17578 l-0.29297 0 z M96.3083125 34.9805 c0 0.039063 -0.032559 0.16275 -0.097656 0.37109 l0.23438 0 c-0.05209 -0.20834 -0.078125 -0.33203 -0.078125 -0.37109 l-0.058594 0 z M122.94903125 12.012 c4.0104 0 6.6471 1.4063 7.9102 4.2188 c0.71615 1.3672 1.0742 4.0039 1.0742 7.9102 l0 0.13672 l-2.0703 0 l0 0.9375 l2.0703 0 l0 10.098 l-1.3672 0 l0 3.6523 l-2.7148 0 l0 1.0352 l-9.4922 0 l0 -1.0352 l-1.1719 0 l0 -3.6523 l-2.4414 0 l0 -2.8516 l1.4648 0 l0 -1.4844 l-1.4648 0 l0 1.4844 l-3.457 0 l0 -1.4844 l2.6172 0 c-0.026035 -2.2916 -0.039063 -4.043 -0.039063 -5.2539 l0 -2.3828 c0 -4.4271 0.74869 -7.3893 2.2461 -8.8867 c1.3802 -1.6276 3.6588 -2.4414 6.8359 -2.4414 z M119.53123125 21.66 l0.039082 0.000019073 l-0.039063 0.078125 l0 2.5391 l-2.1094 0 l0 0.9375 l2.1094 0 c-0.039063 4.0234 -0.058594 7.0639 -0.058594 9.1211 l0 0.97656 l4.6875 0 l0 -1.543 l2.1484 0 l0 -0.039063 c0 -1.901 -0.013027 -4.5508 -0.039063 -7.9492 c0 -0.14322 0.013027 -0.50781 0.039063 -1.0938 c0 -3.685 -0.21484 -5.9439 -0.64453 -6.7773 c-0.44271 -0.80729 -1.2565 -1.2109 -2.4414 -1.2109 l-0.70313 0 c-1.4063 0 -2.2787 0.6185 -2.6172 1.8555 c-0.15625 0.625 -0.27994 1.6602 -0.37109 3.1055 z M131.93403125 24.277 l3.3594 0 l0 0.9375 l-3.3594 0 l0 -0.9375 z M132.16803125 25.391 l0.097656 0 c0.078125 0 0.13672 0.18881 0.17578 0.56641 c0.05209 0 0.13021 -0.18881 0.23438 -0.56641 l0.13672 0 c0.078125 0 0.14322 0.20182 0.19531 0.60547 l0.039063 0 l0.13672 -0.60547 l0.23438 0 l0 0.058594 c-0.14322 0.67709 -0.24738 1.0156 -0.31248 1.0156 l-0.19531 0 c0 -0.05209 -0.045566 -0.25391 -0.13672 -0.60547 l-0.039063 0 c-0.05209 0.40365 -0.11719 0.60547 -0.19531 0.60547 l-0.19531 0 c-0.091152 -0.40365 -0.1823 -0.74219 -0.27346 -1.0156 z M132.26603125 26.797 l0.17576 0 c0.078125 0 0.17578 0.22135 0.29297 0.66406 l0.039063 0 c0 -0.065098 0.058594 -0.28645 0.17578 -0.66404 l0.33203 0 l0 1.0742 l-0.23438 0 l0 -0.54688 l-0.039063 0 c-0.091152 0.36459 -0.16928 0.54688 -0.23438 0.54688 l-0.13672 0 c-0.091152 -0.28646 -0.13672 -0.45574 -0.13672 -0.50783 l-0.058594 0 c0 0.33854 -0.032559 0.50781 -0.097656 0.50781 l-0.17578 0 l0 -0.97656 c0.013027 -0.065098 0.045586 -0.097656 0.097676 -0.097656 z M132.10903125 28.203 l0.19529 0.000019073 c0.15625 0.091152 0.23438 0.20184 0.23438 0.33205 c0.013027 0 0.10418 -0.11068 0.27346 -0.33203 l0.19531 0 l0 0.097656 l-0.27344 0.41016 c0 0.026035 0.10416 0.20182 0.3125 0.52734 l0 0.039063 l-0.23438 0 l-0.27344 -0.33203 c-0.10416 0.22135 -0.18229 0.33203 -0.23438 0.33203 l-0.23438 0 c0.22135 -0.32553 0.33203 -0.51434 0.33203 -0.56643 c-0.19531 -0.28646 -0.29297 -0.45574 -0.29297 -0.50783 z M132.26603125 29.609 l0.27342 0 c0.3125 0 0.46875 0.11068 0.46875 0.33203 l0 0.039063 l-0.097656 0.13672 c0.05209 0 0.097656 0.05209 0.13672 0.15625 l0 0.17578 c-0.065098 0.15625 -0.22135 0.23438 -0.46875 0.23438 l-0.41016 0 l0 -0.97656 c0.013027 -0.065098 0.045586 -0.097656 0.097676 -0.097656 z M132.44103125 29.844 l0 0.19531 l0.29297 0 l0 -0.19531 l-0.29297 0 z M125.19503125 29.844 l0.27342 0 l0 0.37109 l0.33203 0 l0 -0.27344 c0.013027 -0.065098 0.045586 -0.097656 0.097676 -0.097656 l0.17578 0 l0 1.0352 l-0.27344 0 l0 -0.42969 l-0.33203 0 l0 0.42969 l-0.27344 0 l0 -1.0352 z M132.44103125 30.2148 l0 0.23438 l0.33203 0 l0 -0.13672 c0 -0.065098 -0.032559 -0.097656 -0.097656 -0.097656 l-0.23438 0 z M132.26603125 31.0156 l0.60545 -0.000019073 c0.05209 0.013027 0.078125 0.045586 0.078125 0.097676 l0 0.13672 l-0.50781 0 l0 0.17578 l0.46875 0 l0 0.23438 l-0.46875 0 l0 0.19531 l0.50781 0 l0 0.23438 l-0.78125 0 l0 -0.97656 c0.013027 -0.065098 0.045586 -0.097656 0.097676 -0.097656 z M125.19503125 31.25 l0.78125 0 l0 0.097656 c0 0.11719 -0.15625 0.35156 -0.46875 0.70313 c0.35156 0 0.52734 0.026035 0.52734 0.078125 l0 0.15625 l-0.89844 0 l0 -0.19531 c0.23438 -0.27344 0.39063 -0.47525 0.46875 -0.60547 l-0.41016 0 l0 -0.23438 z M120.27343125 32.5977 c0.27344 0 0.42969 0.20834 0.46875 0.625 c0 0.29947 -0.18881 0.46875 -0.56641 0.50781 c-0.3125 -0.078125 -0.46875 -0.2474 -0.46875 -0.50781 c0 -0.41666 0.18881 -0.625 0.56641 -0.625 z M125.46903125 32.6562 l0.27346 0 c0 0.078125 0.13021 0.41666 0.39063 1.0156 l-0.23438 0 c-0.065098 0 -0.097656 -0.058594 -0.097656 -0.17578 l-0.33203 0 c-0.065098 0 -0.097656 0.058594 -0.097656 0.17578 l-0.27344 0 l0 -0.039063 c0.065098 -0.11719 0.18879 -0.44271 0.37107 -0.97656 z M120.00003125 33.0273 l0 0.19531 c0 0.18229 0.091152 0.27344 0.27344 0.27344 c0.13021 -0.026035 0.19531 -0.11719 0.19531 -0.27344 l0 -0.19531 c0 -0.05209 -0.065098 -0.11719 -0.19531 -0.19531 l-0.097656 0 c-0.039063 0 -0.097656 0.065098 -0.17578 0.19531 z M125.56603125 33.0273 l-0.058594 0.23438 l0.19531 0 c-0.039063 -0.15625 -0.084629 -0.23438 -0.13672 -0.23438 z M120.17583125 34.0039 c0.20834 0 0.36459 0.097656 0.46875 0.29297 l0 0.13672 l-0.23438 0 c0 -0.13021 -0.091152 -0.19531 -0.27344 -0.19531 l-0.13672 0.19531 l0 0.17578 c0 0.19531 0.091152 0.29297 0.27344 0.29297 c0.026035 0 0.10416 -0.078125 0.23438 -0.23438 l0.19531 0 c0 0.26041 -0.17578 0.41666 -0.52734 0.46875 c-0.3125 -0.091152 -0.46875 -0.26693 -0.46875 -0.52734 c0.039063 -0.40365 0.19531 -0.60547 0.46875 -0.60547 z M135.410175 12.030999999999999 l14.043 0 l0 4.6484 l-8.4766 0 l0 6.6406 l7.3047 0 l0.097656 0.058594 l-0.058594 0.097656 c-0.026035 0.9375 -0.039063 1.4844 -0.039063 1.6406 l-0.80078 0 l0 0.039063 c0 0.33854 -0.032559 1.0612 -0.097656 2.168 l0.74219 0 c0 0.53385 -0.045566 0.80078 -0.13672 0.80078 l-5.1367 0 l0 0.95703 l-2.6758 0 l0 0.50781 l0.80078 0 l0 2.4414 l2.6758 0 l0 0.42969 l-2.6758 0 l0 6.7773 l-0.039063 0.33203 l-2.8906 0 l0 0.42969 l-2.5391 0 c-0.065098 0 -0.097656 -0.032559 -0.097656 -0.097656 l0 -0.70313 l0.058594 -0.46875 l1.3672 0 l0 -0.70313 l-1.4258 0 l0 -2.6953 l0.66406 0 l0 -9.8828 l1.1328 0 l0 -0.70313 l-1.7969 0 l0 -12.715 z M134.941405 30.585900000000002 l0.19529 0 c0.065098 0 0.097656 0.032559 0.097656 0.097656 l0 0.64453 c0.013027 0.19531 0.058594 0.29297 0.13672 0.29297 l0.19531 0 c0.039063 0 0.084629 -0.045566 0.13672 -0.13672 l0 -0.80078 c0.013027 -0.065098 0.045586 -0.097656 0.097676 -0.097656 l0.17578 0 l0 0.89844 c0 0.27344 -0.18881 0.41016 -0.56641 0.41016 c-0.3125 -0.039063 -0.46875 -0.17578 -0.46875 -0.41016 l0 -0.89844 z M141.074175 31.0547 l0.039063 0 c0.49479 0.22135 0.78125 0.33203 0.85938 0.33203 l0 0.27344 l-0.85938 0.29297 l-0.039063 0 l0 -0.15625 c0 -0.039063 0.18881 -0.13021 0.56641 -0.27344 l0 -0.039063 c-0.065098 0 -0.25391 -0.065098 -0.56641 -0.19531 l0 -0.23438 z M138.378875 32.0312 l0 0.42969 l2.5586 0 l0 -0.42969 l-2.5586 0 z M135.331975 32.2266 l0.0391 0.000019073 c0.33854 0 0.50781 0.14322 0.50781 0.42969 l-0.3125 0 c0 -0.13021 -0.078125 -0.19531 -0.23438 -0.19531 c-0.05209 0 -0.10418 0.045566 -0.15627 0.13672 c0.46875 0.18229 0.70313 0.3125 0.70313 0.39063 c0 0.026035 0.019531 0.071602 0.058594 0.1367 c0 0.23438 -0.18881 0.3776 -0.56641 0.42969 c-0.35156 -0.05209 -0.52734 -0.21484 -0.52734 -0.48828 l0.33203 0 c0 0.13021 0.032559 0.19531 0.097656 0.19531 l0.23438 0 c0.065098 0 0.097656 -0.032559 0.097656 -0.097656 l0 -0.097656 c-0.46875 -0.11719 -0.70313 -0.24088 -0.70313 -0.37109 l0 -0.17578 c0.10416 -0.19531 0.24738 -0.29297 0.42967 -0.29297 z M134.843765 33.8672 l0.15629 -0.000019073 c0.18229 0 0.30598 0.13021 0.37107 0.39063 l0.33203 -0.39063 l0.23438 0 l0 0.097656 c-0.22135 0.29947 -0.33203 0.50781 -0.33203 0.625 c0.039063 0 0.16275 0.16928 0.37109 0.50781 l0 0.058594 l-0.27344 0 c-0.026035 0 -0.13672 -0.13021 -0.33203 -0.39063 c-0.11719 0.23438 -0.21484 0.36459 -0.29297 0.39063 l-0.27344 0 c0.22135 -0.39063 0.36457 -0.59896 0.42967 -0.625 c-0.26041 -0.3776 -0.39063 -0.59895 -0.39063 -0.66404 z M170.17575625 12.09 c3.099 0 5.1758 0.99611 6.2305 2.9883 c0.72916 1.5104 1.0938 2.9883 1.0938 4.4336 l-0.039063 0 c-2.1225 0.18229 -3.5742 0.27344 -4.3555 0.27344 c0 -1.0287 -0.319 -1.8945 -0.95703 -2.5977 c-0.59896 -0.33854 -1.1523 -0.50781 -1.6602 -0.50781 l-0.78125 0 c-1.3281 0 -2.1354 0.51432 -2.4219 1.543 c-0.065098 0.29947 -0.097656 0.53385 -0.097656 0.70313 l0 0.41016 c0 1.4583 0.76822 2.5131 2.3047 3.1641 c0.13021 0.11719 1.1979 0.60547 3.2031 1.4648 c1.0677 0.49479 2.0572 1.1068 2.9688 1.8359 l0 0.039063 l-4.9023 0 l0 0.54688 l6.4648 0 l0 0.78125 l0.82031 0 l0 8.4766 l-1.6016 0 l0 4.3555 l-12.422 0 l0 -4.3555 l-2.9297 0 l0 -2.9297 l1.6602 0 l0 -1.0156 l-1.6602 0 l0 -0.68359 l5.6836 0 l0 4.6289 l5.8203 0 l0 -6.9727 l-4.3555 0 l0 -2.2852 l-5.4102 0 l0 -0.54688 l2.6172 0 l0 -0.039063 c-2.2916 -1.5234 -3.4375 -3.6783 -3.4375 -6.4648 l0 -0.37109 c0 -2.3307 0.71615 -4.1016 2.1484 -5.3125 c1.3021 -1.0417 3.3072 -1.5625 6.0156 -1.5625 z M177.22665625 25.84 l1.9727 0 l0 0.54688 l-1.9727 0 l0 -0.54688 z M159.21865625 31.699199999999998 l1.875 0 l0 1.0156 l-1.875 0 l0 -1.0156 z M171.73865625 31.699199999999998 l0.58592 -0.000019073 c0.065098 0.013027 0.097656 0.045586 0.097656 0.097676 l0 0.13672 l-0.50781 0 l0 0.17578 l0.44922 0 l0 0.13672 c0 0.065098 -0.026035 0.097656 -0.078125 0.097656 l-0.37109 0 l0 0.19531 l0.50781 0 l0 0.13672 c0 0.05209 -0.032559 0.078125 -0.097656 0.078125 l-0.58594 0 c-0.065098 0 -0.097656 -0.026035 -0.097656 -0.078125 l0 -0.87891 c0.013027 -0.065098 0.045586 -0.097656 0.097676 -0.097656 z M171.50365625 33.0859 l0.17574 0.000019073 c0.026035 0 0.13672 0.11719 0.33203 0.35156 c0.091152 -0.23438 0.16277 -0.35156 0.21486 -0.35156 l0.13672 0 c0.065098 0 0.097656 0.026035 0.097656 0.078125 c-0.27344 0.3125 -0.41016 0.63803 -0.41016 0.97656 l-0.13672 0 c-0.065098 0 -0.11066 -0.18229 -0.1367 -0.54688 c-0.18229 -0.2474 -0.27344 -0.41668 -0.27344 -0.50783 z M171.36665625 34.4531 l0.17576 -0.000019073 c0.078125 0 0.15625 0.20182 0.23438 0.60547 l0.097656 0 c0.078125 -0.40365 0.14975 -0.60547 0.21484 -0.60547 l0.19531 0 c0.05209 0.013027 0.078125 0.045586 0.078125 0.097676 l0 0.85938 c0 0.065098 -0.026035 0.097656 -0.078125 0.097656 l-0.13672 0 l0 -0.58594 l-0.058594 0 l-0.17578 0.58594 l-0.13672 0 c-0.065098 0 -0.14322 -0.19531 -0.23438 -0.58594 l-0.039063 0 l0 0.58594 l-0.13672 0 c-0.065098 0 -0.097656 -0.032559 -0.097656 -0.097656 l0 -0.85938 c0.013027 -0.065098 0.045586 -0.097656 0.097676 -0.097656 z M176.71865625 35.8789 l0.46875 0 c0.2474 0 0.37109 0.12369 0.37109 0.37109 c-0.065098 0 -0.097656 0.026035 -0.097656 0.078125 c0.091152 0.11719 0.13672 0.22787 0.13672 0.33203 c-0.078125 0.18229 -0.2474 0.27344 -0.50781 0.27344 l-0.27344 0 c-0.065098 0 -0.097656 -0.032559 -0.097656 -0.097656 l0 -0.95703 z M176.99165625 36.1133 l0 0.17578 l0.19531 0 c0.05209 0 0.078125 -0.032559 0.078125 -0.097656 l0 -0.078125 l-0.27344 0 z M176.99165625 36.4648 l0 0.23438 l0.23438 0 c0.065098 0 0.097656 -0.032559 0.097656 -0.097656 l0 -0.039063 c0 -0.065098 -0.032559 -0.097656 -0.097656 -0.097656 l-0.23438 0 z M176.71865625 37.2461 l0.19531 0 c0.065098 0 0.20182 0.21484 0.41016 0.64453 l0.039063 0 l0 -0.64453 l0.23438 0 l0 0.95703 c0 0.065098 -0.032559 0.097656 -0.097656 0.097656 l-0.097656 0 c-0.026035 0 -0.17578 -0.19531 -0.44922 -0.58594 l0 0.48828 c0 0.065098 -0.032559 0.097656 -0.097656 0.097656 l-0.039063 0 c-0.065098 0 -0.097656 -0.032559 -0.097656 -0.097656 l0 -0.95703 z M180.5273875 12.012 l5.5469 0 l0 11.152 l5.6055 0 l0 -11.152 l4.707 0 l0 15.898 l-1.9336 0 l0 0.70313 l1.9336 0 l0 11.387 l-4.6094 0 c-0.065098 0 -0.097656 -0.032559 -0.097656 -0.097656 l0 -12.09 l-5.6055 0 l0 12.09 c0 0.065098 -0.032559 0.097656 -0.097656 0.097656 l-4.6484 0 l0 -14.59 l-0.80078 0 l0 -13.398 z M196.3871875 27.91 l2.4805 0 l0 0.70313 l-2.4805 0 l0 -0.70313 z M207.5390375 12.030999999999999 l4.7071 0 c0.065098 0.27344 1.595 5.3646 4.5898 15.273 l0.83984 0 l0 9.1992 l-1.9336 0 l0 0.72266 l1.9336 0 l0 1.9727 l-5.1953 0 l0 -5.6641 l-6.3672 0 l0 2.4023 l-2.5781 0 l0 4.0625 l-4.7266 0 l0 -0.27344 l0.37109 0 l0 -3.7891 l1.9336 0 l0 -7.832 l1.6016 0 z M209.7459375 19.902 l0 0.058613 c-0.40365 2.2135 -1.1849 5.7162 -2.3438 10.508 l4.375 0 l0 -3.1641 l-0.37109 0 c-1.0417 -4.5313 -1.5625 -6.9986 -1.5625 -7.4023 l-0.097656 0 z M201.4062375 26.698999999999998 l0.42969 0 c0 0.11719 0.058594 0.21484 0.17578 0.29297 c0.013027 -0.11719 0.078125 -0.21484 0.19531 -0.29297 l0.33203 0 l0 0.039063 c-0.22135 0.3125 -0.33203 0.48828 -0.33203 0.52734 c0.05209 0.11719 0.17578 0.306 0.37109 0.56641 l0 0.097656 l-0.17578 0 c-0.18229 0 -0.3125 -0.13021 -0.39063 -0.39063 c-0.19531 0.26041 -0.306 0.39063 -0.33203 0.39063 l-0.23438 0 c-0.065098 0 -0.097656 -0.032559 -0.097656 -0.097656 c0.039063 0 0.16928 -0.17578 0.39063 -0.52734 l0 -0.078125 c-0.22135 -0.32553 -0.33203 -0.50131 -0.33203 -0.52734 z M197.4414375 27.266 l3.6719 0 l0 0.83984 l-3.6719 0 l0 -0.83984 z M217.8129375 27.871000000000002 l0.99609 -0.000019073 l0 0.23438 l-0.60547 0.76172 l0.56641 0 c0.05209 0.013027 0.078125 0.045586 0.078125 0.097676 l0 0.097656 c0 0.065098 -0.026035 0.097656 -0.078125 0.097656 l-0.99609 0 l0 -0.23438 l0.60547 -0.76172 l-0.56641 0 l0 -0.29297 z M210.6059375 29.102 l0.27342 -0.000019073 l0 0.46875 l0.52734 -0.46875 l0.27344 0 l0 0.058594 l-0.41016 0.46875 c0.3125 0.44271 0.46875 0.69012 0.46875 0.74221 l-0.29297 0 c-0.026035 0 -0.16926 -0.16928 -0.42967 -0.50781 c-0.039063 0 -0.084629 0.045566 -0.13672 0.13672 l0 0.37109 l-0.27344 0 l0 -1.2695 z M217.9099375 29.531 l0.56637 0 c0.28646 0.039063 0.42969 0.18229 0.42969 0.42969 l-0.13672 0.23438 c0.091152 0.10416 0.13672 0.29297 0.13672 0.56641 l0 0.039063 l-0.29297 0 c-0.026035 -0.3125 -0.071602 -0.46875 -0.1367 -0.46875 l-0.33203 0 l0 0.46875 l-0.23438 0 c-0.065098 0 -0.097656 -0.032559 -0.097656 -0.097656 l0 -1.0742 c0.013027 -0.065098 0.045586 -0.097656 0.097676 -0.097656 z M218.1449375 29.805 l0 0.29297 l0.33203 0 c0.065098 0 0.097656 -0.032559 0.097656 -0.097656 l0 -0.19531 l-0.42969 0 z M217.8129375 31.1719 l0.89842 -0.000019073 c0.065098 0.013027 0.097656 0.045586 0.097656 0.097676 l0 0.097656 c0 0.065098 -0.032559 0.097656 -0.097656 0.097656 l-0.27344 0 l0 0.99609 l-0.33203 0 l0 -0.99609 l-0.29297 0 c-0.065098 0 -0.097656 -0.032559 -0.097656 -0.097656 l0 -0.097656 c0.013027 -0.065098 0.045586 -0.097656 0.097676 -0.097656 z M217.7149375 32.832 l0.23438 0 c0.091152 0 0.18881 0.26693 0.29297 0.80078 l0.039063 0 c0.15625 -0.46875 0.23438 -0.73568 0.23438 -0.80078 l0.33203 0 c-0.2474 0.84635 -0.40365 1.2695 -0.46875 1.2695 l-0.27344 0 z M207.5390375 33.9062 l0 0.25391 c0 0.05209 -0.25391 0.15625 -0.76172 0.3125 l0 0.058594 l0.76172 0.27344 l0 0.29297 l-1.1914 -0.42969 l0 -0.33203 z M200.2147375 34.4727 l0.15623 0 c0.10416 0 0.27344 0.42969 0.50781 1.2891 l-0.27344 0 c0 -0.026035 -0.032559 -0.12369 -0.097656 -0.29297 l-0.42969 0 c-0.026035 0.19531 -0.071602 0.29297 -0.1367 0.29297 l-0.23438 0 c0.27344 -0.85938 0.44271 -1.2891 0.50781 -1.2891 z M218.3399375 34.4727 l0.13672 0 c0.3125 0 0.50131 0.22135 0.56641 0.66406 c-0.091152 0.44271 -0.29297 0.66406 -0.60547 0.66406 c-0.44271 -0.078125 -0.66406 -0.29947 -0.66406 -0.66406 c0.065098 -0.44271 0.25391 -0.66406 0.56641 -0.66406 z M218.1059375 35.0977 l0 0.039082 c0 0.16928 0.078125 0.29949 0.23438 0.39064 l0.13672 0 c0.15625 -0.091152 0.23438 -0.22137 0.23438 -0.39064 l0 -0.039063 c-0.026035 -0.2474 -0.13672 -0.37109 -0.33203 -0.37109 c-0.18229 0.065098 -0.27344 0.18879 -0.27344 0.37107 z M200.2733375 34.9023 c-0.065098 0.20834 -0.097656 0.319 -0.097656 0.33203 l0.23438 0 l-0.097656 -0.33203 l-0.039063 0 z M212.4809375 39.53121 l6.2891 0 l0 0.46875 l-6.2891 0 l0 -0.46875 z M219.394535 12.050999999999998 l7.207 -0.000038146 c4.2188 0 6.9141 1.0872 8.0859 3.2617 c0.6901 1.3802 1.0352 3.1314 1.0352 5.2539 c-0.039063 0.3776 -0.058594 0.76172 -0.058594 1.1523 l4.0039 0 l0 1.3477 l-4.1406 0 l0 -0.039063 c0.065098 -0.80729 0.097656 -1.2435 0.097656 -1.3086 l-2.3242 0 l0 1.3477 l2.2266 0 l0 4.7461 l-4.6094 0 l0 1.6406 l-0.039063 0 c-3.5547 0.026035 -5.5664 0.039063 -6.0352 0.039063 l0 2.4609 l-0.97656 0 l0 4.375 l0.54688 0 l0 3.6719 l-4.375 0 l0 -1.7188 l-0.60547 0 l0 -1.4453 c0 -1.6667 -0.013027 -4.3814 -0.039063 -8.1445 l2.6563 0 l0 -1.4258 l-2.6563 0 l0 -15.215 z M224.843775 16.797 l0 7.9492 l1.6602 0 l0 -1.1523 l3.3008 0 c0.44271 -0.40365 0.66406 -1.5365 0.66406 -3.3984 c0 -1.7838 -0.40365 -2.8061 -1.2109 -3.0664 c-0.29947 -0.22135 -0.98307 -0.33203 -2.0508 -0.33203 l-2.3633 0 z M235.859375 23.359 l0.13672 0 c0.15625 0.13021 0.23438 0.25391 0.23438 0.37109 l0.3125 -0.37109 l0.19531 0 l0 0.078125 c-0.2474 0.33854 -0.37109 0.66406 -0.37109 0.97656 l-0.13672 0 c-0.065098 0 -0.11066 -0.18229 -0.1367 -0.54688 c-0.05209 0 -0.16277 -0.15625 -0.33205 -0.46875 z M235.800375 24.746000000000002 l0.83984 0 l0 0.23438 l-0.27344 0 l0 0.74219 c0 0.065098 -0.032559 0.097656 -0.097656 0.097656 l-0.097656 0 c-0.05209 0 -0.078125 -0.032559 -0.078125 -0.097656 l0 -0.74219 l-0.29297 0 l0 -0.23438 z M241.64061875 12.030999999999999 l13.789 0 l0 4.5703 c0 0.065098 -0.032559 0.097656 -0.097656 0.097656 l-8.1836 0 l0 6.0742 l7.3438 0 l0 0.039063 c0 0.18229 -0.032559 1.1719 -0.097656 2.9688 c-0.026035 0 -0.039063 0.019531 -0.039063 0.058594 l0.33203 0 l0 1.4063 l-6.3672 0 l0 5.7422 l-1.6992 0 l0 0.56641 l1.6992 0 l0 1.7383 l7.207 0 l0 0.66406 l-0.56641 0 l0 3.4375 l-8.6133 0 l0 0.60547 l-4.1016 0 l0 -10.02 l-0.60547 0 l0 -3.5352 l-4.4727 0 l0 -0.60547 l4.4727 0 l0 -13.809 z M241.67971875 25.84 l0 0.60547 l2.3047 0 l0 -0.60547 l-2.3047 0 z M248.75001875 33.8867 l0.33203 -0.000019073 l0 0.46875 l0.039063 0 c0 -0.091152 0.14322 -0.2474 0.42969 -0.46875 l0.33203 0 l-0.46875 0.50781 l0.50781 0.76172 l-0.33203 0 c-0.2474 -0.35156 -0.38412 -0.52734 -0.41016 -0.52734 c-0.065098 0.013027 -0.097656 0.045586 -0.097656 0.097676 l0 0.42969 l-0.33203 0 l0 -1.2695 z M250.39021875 33.8867 l0.66406 0 c0.20834 0 0.35156 0.12369 0.42969 0.37109 c0 0.039063 -0.065098 0.14975 -0.19531 0.33203 c0.091152 0 0.15625 0.18881 0.19531 0.56641 l-0.23438 0 c-0.065098 0 -0.11719 -0.15625 -0.15625 -0.46875 l-0.37109 0 l0 0.46875 l-0.33203 0 l0 -1.2695 z M252.51921875 33.8867 l0.1758 -0.000019073 c0.28646 0 0.46225 0.18881 0.52734 0.56641 l0 0.17578 c0 0.10416 -0.045566 0.21484 -0.13672 0.33203 l0 0.058594 c0.091152 0 0.13672 0.026035 0.13672 0.078125 s-0.045566 0.10418 -0.13672 0.15627 c-0.05209 0 -0.10418 -0.05209 -0.15627 -0.15625 l-0.23438 0.058594 l-0.17578 0 c-0.3125 0 -0.48828 -0.23438 -0.52734 -0.70313 c0.091152 -0.3776 0.26693 -0.56641 0.52734 -0.56641 z M252.32421875 34.4531 l0 0.13674 c0 0.22135 0.11068 0.33203 0.33203 0.33203 l0.039063 0 l0 -0.058594 l-0.078125 0 l0 -0.039063 c0 -0.05209 0.045566 -0.097656 0.13672 -0.13672 l0.13672 0.078125 c0 -0.013027 0.013027 -0.10418 0.039063 -0.27346 c-0.013027 -0.2474 -0.13672 -0.37109 -0.37109 -0.37109 c-0.15625 0.039063 -0.23438 0.14975 -0.23438 0.33203 z M250.72221875 34.1602 l0 0.29297 l0.33203 0 c0.065098 0 0.097656 -0.032559 0.097656 -0.097656 l0 -0.097656 c0 -0.065098 -0.032559 -0.097656 -0.097656 -0.097656 l-0.33203 0 z M255.25421875 36.2305 l0.27344 0 l0 0.058594 c0 0.5599 -0.045566 0.83984 -0.13672 0.83984 s-0.13672 -0.20182 -0.13672 -0.60547 l0 -0.29297 z M255.25421875 37.168 l0.27344 0 l0 0.29297 l-0.27344 0 l0 -0.29297 z M265.9765375 12.09 c3.099 0 5.1758 0.99611 6.2305 2.9883 c0.72916 1.5104 1.0938 2.9883 1.0938 4.4336 l-0.039063 0 c-2.1225 0.18229 -3.5742 0.27344 -4.3555 0.27344 c0 -1.0287 -0.319 -1.8945 -0.95703 -2.5977 c-0.59896 -0.33854 -1.1523 -0.50781 -1.6602 -0.50781 l-0.78125 0 c-1.3281 0 -2.1354 0.51432 -2.4219 1.543 c-0.065098 0.29947 -0.097656 0.53385 -0.097656 0.70313 l0 0.41016 c0 1.4583 0.76822 2.5131 2.3047 3.1641 c0.13021 0.11719 1.1979 0.60547 3.2031 1.4648 c1.0677 0.49479 2.0572 1.1068 2.9688 1.8359 l0 0.039063 l-4.9023 0 l0 0.54688 l6.4648 0 l0 0.78125 l0.82031 0 l0 8.4766 l-1.6016 0 l0 4.3555 l-12.422 0 l0 -4.3555 l-2.9297 0 l0 -2.9297 l1.6602 0 l0 -1.0156 l-1.6602 0 l0 -0.68359 l5.6836 0 l0 4.6289 l5.8203 0 l0 -6.9727 l-4.3555 0 l0 -2.2852 l-5.4102 0 l0 -0.54688 l2.6172 0 l0 -0.039063 c-2.2916 -1.5234 -3.4375 -3.6783 -3.4375 -6.4648 l0 -0.37109 c0 -2.3307 0.71615 -4.1016 2.1484 -5.3125 c1.3021 -1.0417 3.3072 -1.5625 6.0156 -1.5625 z M273.0274375 25.84 l1.9727 0 l0 0.54688 l-1.9727 0 l0 -0.54688 z M255.0194375 31.699199999999998 l1.875 0 l0 1.0156 l-1.875 0 l0 -1.0156 z M267.5394375 31.699199999999998 l0.58592 -0.000019073 c0.065098 0.013027 0.097656 0.045586 0.097656 0.097676 l0 0.13672 l-0.50781 0 l0 0.17578 l0.44922 0 l0 0.13672 c0 0.065098 -0.026035 0.097656 -0.078125 0.097656 l-0.37109 0 l0 0.19531 l0.50781 0 l0 0.13672 c0 0.05209 -0.032559 0.078125 -0.097656 0.078125 l-0.58594 0 c-0.065098 0 -0.097656 -0.026035 -0.097656 -0.078125 l0 -0.87891 c0.013027 -0.065098 0.045586 -0.097656 0.097676 -0.097656 z M267.3044375 33.0859 l0.17574 0.000019073 c0.026035 0 0.13672 0.11719 0.33203 0.35156 c0.091152 -0.23438 0.16277 -0.35156 0.21486 -0.35156 l0.13672 0 c0.065098 0 0.097656 0.026035 0.097656 0.078125 c-0.27344 0.3125 -0.41016 0.63803 -0.41016 0.97656 l-0.13672 0 c-0.065098 0 -0.11066 -0.18229 -0.1367 -0.54688 c-0.18229 -0.2474 -0.27344 -0.41668 -0.27344 -0.50783 z M267.1674375 34.4531 l0.17576 -0.000019073 c0.078125 0 0.15625 0.20182 0.23438 0.60547 l0.097656 0 c0.078125 -0.40365 0.14975 -0.60547 0.21484 -0.60547 l0.19531 0 c0.05209 0.013027 0.078125 0.045586 0.078125 0.097676 l0 0.85938 c0 0.065098 -0.026035 0.097656 -0.078125 0.097656 l-0.13672 0 l0 -0.58594 l-0.058594 0 l-0.17578 0.58594 l-0.13672 0 c-0.065098 0 -0.14322 -0.19531 -0.23438 -0.58594 l-0.039063 0 l0 0.58594 l-0.13672 0 c-0.065098 0 -0.097656 -0.032559 -0.097656 -0.097656 l0 -0.85938 c0.013027 -0.065098 0.045586 -0.097656 0.097676 -0.097656 z M272.5194375 35.8789 l0.46875 0 c0.2474 0 0.37109 0.12369 0.37109 0.37109 c-0.065098 0 -0.097656 0.026035 -0.097656 0.078125 c0.091152 0.11719 0.13672 0.22787 0.13672 0.33203 c-0.078125 0.18229 -0.2474 0.27344 -0.50781 0.27344 l-0.27344 0 c-0.065098 0 -0.097656 -0.032559 -0.097656 -0.097656 l0 -0.95703 z M272.7924375 36.1133 l0 0.17578 l0.19531 0 c0.05209 0 0.078125 -0.032559 0.078125 -0.097656 l0 -0.078125 l-0.27344 0 z M272.7924375 36.4648 l0 0.23438 l0.23438 0 c0.065098 0 0.097656 -0.032559 0.097656 -0.097656 l0 -0.039063 c0 -0.065098 -0.032559 -0.097656 -0.097656 -0.097656 l-0.23438 0 z M272.5194375 37.2461 l0.19531 0 c0.065098 0 0.20182 0.21484 0.41016 0.64453 l0.039063 0 l0 -0.64453 l0.23438 0 l0 0.95703 c0 0.065098 -0.032559 0.097656 -0.097656 0.097656 l-0.097656 0 c-0.026035 0 -0.17578 -0.19531 -0.44922 -0.58594 l0 0.48828 c0 0.065098 -0.032559 0.097656 -0.097656 0.097656 l-0.039063 0 c-0.065098 0 -0.097656 -0.032559 -0.097656 -0.097656 l0 -0.95703 z"></path></g></svg>